<svg
  viewBox="0 0 1440 671"
  fill="none"
  xmlns="http://www.w3.org/2000/svg"
  role="img"
  class="absolute"
  id="rayas"
>
  <g opacity="0.5" clip-path="url(#product-lines-bg_svg__a)">
    <g clip-path="url(#product-lines-bg_svg__b)">
      <path
        opacity="0.5"
        fill-rule="evenodd"
        clip-rule="evenodd"
        d="m1440.01 36.44.23.443v.003l-.03.011-.08.044c-.07.04-.19.098-.33.174a176.864 176.864 0 0 1-6.75 3.218c-4.83 2.192-12.14 5.321-22.05 9.075-19.83 7.508-50.1 17.514-91.88 27.519-83.54 20.01-213.08 40.013-397.112 40.013v-1c183.962 0 313.422-19.995 396.882-39.986 41.73-9.995 71.96-19.989 91.75-27.481 9.9-3.746 17.19-6.867 22-9.05 2.4-1.092 4.19-1.949 5.37-2.532.59-.292 1.04-.516 1.33-.666.14-.075.25-.132.33-.17l.08-.042.02-.01V36l.24.44Zm0 40 .21.452v.003l-.02.01-.09.04c-.07.035-.19.087-.33.156-.3.137-.75.34-1.34.605-1.2.53-2.99 1.305-5.41 2.29-4.83 1.973-12.13 4.79-22.05 8.168-19.83 6.756-50.1 15.761-91.87 24.765-83.53 18.008-213.07 31.011-397.102 31.011v-1c183.972 0 313.432-12.997 396.892-30.989 41.73-8.996 71.97-17.99 91.76-24.734 9.9-3.372 17.18-6.18 21.99-8.146 2.41-.982 4.2-1.754 5.38-2.28.59-.262 1.03-.463 1.33-.598l.32-.153.09-.038.02-.01v-.002l.22.45Zm0 262.999c.01 0 .01 0 .01-.5s0-.5-.01-.5H922.016v1h517.994Zm.01 34.5c0 .5 0 .5-.01.5H922.016v-1h517.994c.01 0 .01 0 .01.5Zm0 33c0 .5 0 .5-.01.5H922.016v-1h517.994c.01 0 .01 0 .01.5Zm.14-286.022-.15-.476-.15-.476-.01.001-.02.007-.08.025a70.534 70.534 0 0 1-1.66.502c-1.18.351-2.97.865-5.38 1.521-4.81 1.31-12.1 3.184-22 5.432-19.8 4.497-50.03 10.495-91.77 16.493-83.48 11.996-212.95 23.995-396.931 23.995v1c184.021 0 313.541-12.002 397.071-24.005 41.76-6.002 72.03-12.005 91.85-16.508 9.92-2.251 17.22-4.128 22.05-5.442 2.41-.658 4.2-1.174 5.4-1.527.59-.176 1.04-.311 1.33-.403l.34-.104.08-.026.02-.007.01-.002Zm-.15 39.523.1.489-.02.006-.09.017c-.07.016-.18.039-.33.069-.3.061-.74.151-1.34.269-1.19.235-2.98.579-5.39 1.017-4.83.876-12.13 2.126-22.04 3.627-19.82 3.002-50.08 7.003-91.84 11.004-83.52 8.001-213.04 16.002-397.05 16.002v-1c183.99 0 313.47-8 396.95-15.998 41.74-3.999 71.98-7.998 91.79-10.997 9.9-1.499 17.19-2.748 22.01-3.622 2.4-.437 4.19-.78 5.38-1.014.59-.117 1.03-.207 1.33-.267.14-.03.25-.053.33-.068l.08-.018.02-.005c.01 0 .01 0 .11.489Zm.06 37.496-.06-.496-.06-.497-.11.013-.33.039c-.29.033-.73.084-1.33.15-1.18.131-2.97.325-5.38.571-4.82.492-12.11 1.194-22.02 2.038-19.81 1.687-50.05 3.937-91.8 6.186-83.49 4.5-212.98 9-396.968 9v1c184.008 0 313.518-4.501 397.028-9.001 41.75-2.25 72.01-4.501 91.83-6.189 9.91-.844 17.21-1.547 22.03-2.04 2.41-.246 4.2-.439 5.39-.571.6-.066 1.04-.117 1.34-.151l.33-.039.11-.013Zm-.06 35.503c.05.499.04.499.04.499l-.11.009-.33.028c-.29.025-.74.061-1.33.109-1.19.095-2.98.235-5.39.413-4.83.355-12.13.863-22.03 1.473-19.82 1.219-50.07 2.844-91.83 4.469-83.51 3.25-213.01 6.5-397.018 6.5v-1c183.998 0 313.488-3.25 396.978-6.499 41.75-1.625 72-3.25 91.8-4.468 9.91-.61 17.2-1.117 22.02-1.473a843.058 843.058 0 0 0 6.72-.521l.33-.027.11-.01.04.498Zm.01 37.502-.01-.5-.01-.5-.44.012-1.34.033c-1.18.03-2.97.072-5.38.127-4.82.11-12.12.266-22.03.453-19.81.375-50.06.875-91.81 1.375-83.49 1-212.99 2-396.989 2v1c183.999 0 313.499-1 397.009-2 41.75-.5 72-1 91.81-1.375 9.91-.187 17.21-.344 22.03-.453 2.41-.055 4.2-.098 5.39-.127l1.33-.034.44-.011Zm-.01 35.5v-1H922.007v1h518.003Zm.22 331.545-.21.452-.22.45-.01-.002-.02-.009-.08-.039c-.07-.034-.18-.085-.33-.152-.29-.136-.73-.337-1.32-.599-1.19-.526-2.97-1.297-5.38-2.28-4.81-1.965-12.1-4.774-21.99-8.145-19.8-6.744-50.03-15.739-91.76-24.735-83.46-17.992-212.93-35.989-396.894-35.989v-1c184.034 0 313.564 18.003 397.104 36.011 41.77 9.004 72.04 18.01 91.87 24.766 9.92 3.378 17.22 6.194 22.05 8.167 2.42.986 4.21 1.761 5.4 2.291.6.264 1.05.468 1.34.605.15.068.26.121.34.156l.08.04.02.01.01.002Zm-.21-43.548.15-.477-.01-.002-.02-.006-.08-.027c-.08-.023-.19-.058-.34-.104a91.45 91.45 0 0 0-1.34-.403c-1.19-.352-2.98-.869-5.4-1.526-4.82-1.314-12.13-3.191-22.04-5.443-19.83-4.503-50.09-10.505-91.85-16.507-83.53-12.004-213.05-24.005-397.073-24.005v1c183.983 0 313.453 11.999 396.933 23.995 41.73 5.998 71.97 11.996 91.77 16.493 9.9 2.248 17.19 4.121 22 5.432 2.41.655 4.2 1.17 5.38 1.52.59.176 1.04.31 1.33.4.15.045.25.079.33.102l.08.026.02.006v.002s.01 0 .16-.476Zm.1-40.489-.1.49-.11.488-.02-.005-.08-.017a274.545 274.545 0 0 0-1.66-.335c-1.19-.234-2.98-.577-5.38-1.014-4.82-.874-12.11-2.124-22.01-3.623-19.81-2.998-50.05-6.997-91.79-10.996-83.48-7.999-212.97-15.998-396.951-15.998v-1c184.011 0 313.531 8 397.051 16.002 41.75 4.001 72.01 8.002 91.84 11.003 9.91 1.501 17.21 2.752 22.03 3.628 2.42.438 4.21.782 5.4 1.017.6.117 1.04.207 1.34.268l.33.069.08.018.03.005Zm-.1-36.51c.06-.496.06-.496.05-.496l-.11-.013-.33-.039c-.29-.034-.74-.085-1.33-.151-1.19-.132-2.99-.325-5.4-.572-4.82-.492-12.12-1.196-22.03-2.04-19.82-1.687-50.07-3.938-91.83-6.188-83.51-4.501-213.02-9.001-397.024-9.001v1c183.994 0 313.484 4.5 396.974 8.999 41.74 2.25 71.99 4.5 91.8 6.187 9.9.843 17.19 1.546 22.01 2.038 2.41.246 4.2.439 5.39.571l1.33.15.33.039.11.012.06-.496Zm.04-36.498-.04.498-.05.498-.11-.009-.33-.028c-.29-.024-.73-.061-1.33-.108-1.18-.095-2.97-.235-5.38-.413a1844.3 1844.3 0 0 0-22.02-1.472c-19.81-1.218-50.06-2.843-91.8-4.468-83.5-3.25-212.99-6.5-396.983-6.5v-1c184.003 0 313.513 3.25 397.023 6.501 41.75 1.625 72 3.25 91.82 4.469 9.91.61 17.21 1.118 22.03 1.473a905.327 905.327 0 0 1 6.73.522c.14.012.26.021.33.028l.11.009Zm-.04-36.501.01-.5-.44-.012-1.33-.033c-1.19-.03-2.98-.072-5.39-.127-4.82-.11-12.12-.266-22.03-.453-19.81-.375-50.06-.875-91.81-1.375-83.51-1-213.01-2-397.011-2v1c184.001 0 313.501 1 396.991 2 41.75.5 72 .999 91.81 1.374a5822.15 5822.15 0 0 1 27.41.58l1.33.034.44.011c.01 0 .01 0 .02-.499Z"
        fill="url(#product-lines-bg_svg__c)"
      ></path>
    </g>
    <path
      opacity="0.5"
      fill-rule="evenodd"
      clip-rule="evenodd"
      d="M.24 35.44c-.235.442-.233.443-.233.443l.005.003.022.011.084.044a96.317 96.317 0 0 0 1.675.846c1.193.589 2.99 1.45 5.404 2.546 4.83 2.192 12.137 5.321 22.053 9.075 19.833 7.508 50.103 17.514 91.873 27.519 83.541 20.01 213.08 40.013 397.117 40.013v-1c-183.964 0-313.424-19.995-396.884-39.986-41.73-9.995-71.96-19.989-91.752-27.481-9.896-3.746-17.183-6.867-21.993-9.05a187.425 187.425 0 0 1-5.376-2.532 93.273 93.273 0 0 1-1.653-.836L.5 35.013l-.02-.01L.476 35l-.236.44Zm0 40c-.216.451-.214.452-.214.452l.006.003.021.01.084.04.335.156c.297.137.743.34 1.34.605 1.193.53 2.989 1.305 5.403 2.29 4.83 1.973 12.136 4.79 22.052 8.168 19.83 6.756 50.1 15.761 91.868 24.765 83.537 18.008 213.073 31.011 397.105 31.011v-1c-183.967 0-313.432-12.997-396.894-30.989-41.732-8.996-71.963-17.99-91.757-24.734-9.897-3.372-17.184-6.18-21.996-8.146a197.515 197.515 0 0 1-5.376-2.28 98.518 98.518 0 0 1-1.654-.751l-.08-.038-.02-.01-.005-.002-.218.45ZM.236 338.44c-.001 0-.002 0-.002-.5s.001-.5.002-.5h517.998v1H.236Zm-.002 34.5c0 .5.001.5.002.5h517.998v-1H.236c-.001 0-.002 0-.002.5Zm0 33c0 .5.001.5.002.5h517.998v-1H.236c-.001 0-.002 0-.002.5ZM.09 119.917c-.002 0-.002 0 .15-.476.152-.477.153-.476.154-.476l.005.001.02.007.081.025.329.102c.293.091.735.225 1.327.4 1.185.351 2.973.865 5.38 1.521 4.813 1.31 12.103 3.184 22.002 5.432 19.8 4.497 50.036 10.495 91.773 16.493 83.475 11.996 212.951 23.995 396.929 23.995v1c-184.022 0-313.545-12.002-397.071-24.005-41.763-6.002-72.026-12.005-91.852-16.508-9.913-2.251-17.217-4.128-22.044-5.442a262.09 262.09 0 0 1-5.4-1.527c-.596-.176-1.042-.311-1.338-.403l-.335-.104-.083-.026-.022-.007-.005-.002Zm.149 39.523c-.104.489-.104.489-.102.489l.026.006.084.017.333.069c.296.061.741.151 1.337.269 1.19.235 2.984.579 5.397 1.017 4.825.876 12.127 2.126 22.038 3.627 19.822 3.002 50.08 7.003 91.839 11.004 83.518 8.001 213.034 16.002 397.048 16.002v-1c-183.986 0-313.47-8-396.952-15.998-41.742-3.999-71.983-7.998-91.786-10.997-9.901-1.499-17.193-2.748-22.009-3.622-2.407-.437-4.196-.78-5.382-1.014-.593-.117-1.035-.207-1.329-.267l-.33-.068-.081-.018-.025-.005c-.001 0-.002 0-.106.489Zm-.06 37.496.058-.496c.06-.497.06-.497.062-.497l.107.013.33.039 1.33.15c1.188.131 2.978.325 5.386.571 4.818.492 12.112 1.194 22.015 2.038 19.807 1.687 50.052 3.937 91.797 6.186 83.49 4.5 212.982 9 396.973 9v1c-184.008 0-313.517-4.501-397.027-9.001-41.754-2.25-72.01-4.501-91.828-6.189a1325.904 1325.904 0 0 1-22.031-2.04 625.148 625.148 0 0 1-6.73-.722l-.332-.039-.11-.013Zm.058 35.503-.042.499.11.009.332.028 1.334.109c1.19.095 2.982.235 5.393.413 4.822.355 12.121.863 22.03 1.473 19.816 1.219 50.07 2.844 91.823 4.469 83.507 3.25 213.014 6.5 397.02 6.5v-1c-183.994 0-313.488-3.25-396.981-6.499-41.746-1.625-71.992-3.25-91.801-4.468-9.904-.61-17.2-1.117-22.017-1.473a827.778 827.778 0 0 1-6.718-.521l-.33-.027-.109-.01-.044.498Zm-.01 37.502c-.001 0-.002 0 .011-.5l.015-.5.44.012 1.332.033c1.188.03 2.979.072 5.389.127 4.82.11 12.116.266 22.021.453 19.812.375 50.06.875 91.809 1.375 83.498 1 212.996 2 396.994 2v1c-184.001 0-313.503-1-397.006-2-41.75-.5-72.002-1-91.816-1.375-9.906-.187-17.204-.344-22.025-.453-2.41-.055-4.202-.098-5.39-.127l-1.334-.034-.44-.011Zm.017 35.5c-.002 0-.002 0-.002-.5s0-.5.002-.5H518.24v1H.243ZM.02 636.986c-.002.001-.002.001.214.452s.217.451.218.45l.004-.002.02-.009.081-.039.328-.152c.293-.136.734-.337 1.326-.599 1.184-.526 2.97-1.297 5.376-2.28 4.811-1.965 12.099-4.774 21.996-8.145 19.794-6.744 50.025-15.739 91.756-24.735 83.463-17.992 212.928-35.989 396.895-35.989v-1c-184.033 0-313.568 18.003-397.105 36.011-41.769 9.004-72.038 18.01-91.869 24.766-9.915 3.378-17.222 6.194-22.051 8.167-2.415.986-4.21 1.761-5.403 2.291a94.67 94.67 0 0 0-1.34.605c-.149.068-.26.121-.335.156l-.084.04-.022.01-.005.002Zm.213-43.548c-.153-.476-.152-.476-.15-.477l.005-.002.021-.006.084-.027.334-.104c.297-.091.742-.226 1.338-.403 1.192-.352 2.987-.869 5.4-1.526 4.828-1.314 12.131-3.191 22.044-5.443 19.826-4.503 50.09-10.505 91.852-16.507 83.526-12.004 213.05-24.005 397.072-24.005v1c-183.979 0-313.455 11.999-396.929 23.995-41.737 5.998-71.974 11.996-91.773 16.493-9.9 2.248-17.19 4.121-22.003 5.432-2.407.655-4.194 1.17-5.38 1.52a156.721 156.721 0 0 0-1.656.502l-.08.026-.02.006-.006.002-.153-.476Zm-.104-40.489c-.001.001-.002.001.103.49.104.489.104.489.105.488l.025-.005.082-.017.33-.068c.293-.061.736-.15 1.329-.267 1.186-.234 2.974-.577 5.382-1.014 4.815-.874 12.107-2.124 22.009-3.623 19.803-2.998 50.044-6.997 91.785-10.996 83.483-7.999 212.967-15.998 396.953-15.998v-1c-184.015 0-313.531 8-397.048 16.002-41.759 4.001-72.018 8.002-91.84 11.003-9.91 1.501-17.212 2.752-22.038 3.628-2.412.438-4.206.782-5.397 1.017a154.073 154.073 0 0 0-1.67.337l-.083.018-.027.005Zm.105-36.51c-.06-.496-.06-.496-.058-.496l.11-.013.332-.039c.296-.034.74-.085 1.335-.151 1.19-.132 2.983-.325 5.394-.572 4.823-.492 12.123-1.196 22.032-2.04 19.818-1.687 50.073-3.938 91.828-6.188 83.51-4.501 213.019-9.001 397.027-9.001v1c-183.992 0-313.483 4.5-396.973 8.999-41.745 2.25-71.99 4.5-91.797 6.187a1324.72 1324.72 0 0 0-22.015 2.038 614.422 614.422 0 0 0-6.716.721l-.33.039-.108.012c-.001.001-.002.001-.061-.496Zm-.042-36.498c-.001 0-.002 0 .041.498.043.499.044.498.045.498l.108-.009.33-.028c.295-.024.738-.061 1.331-.108 1.188-.095 2.978-.235 5.387-.413 4.818-.355 12.113-.863 22.017-1.472 19.809-1.218 50.055-2.843 91.802-4.468 83.492-3.25 212.986-6.5 396.98-6.5v-1c-184.006 0-313.512 3.25-397.019 6.501-41.754 1.625-72.008 3.25-91.824 4.469-9.908.61-17.207 1.118-22.03 1.473a899.488 899.488 0 0 0-6.727.522 29.19 29.19 0 0 0-.332.028l-.11.009ZM.23 443.44l-.012-.5.44-.012 1.334-.033c1.189-.03 2.98-.072 5.39-.127 4.822-.11 12.12-.266 22.026-.453 19.814-.375 50.065-.875 91.816-1.375 83.502-1 213.004-2 397.006-2v1c-183.998 0-313.496 1-396.994 2-41.749.5-71.998.999-91.81 1.374a5842.72 5842.72 0 0 0-27.41.58l-1.332.034-.44.011-.014-.499Z"
      fill="url(#product-lines-bg_svg__d)"
    ></path>
  </g>
  <defs>
    <linearGradient
      id="product-lines-bg_svg__c"
      x1="1607.5"
      y1="61"
      x2="950"
      y2="357.5"
      gradientUnits="userSpaceOnUse"
    >
      <stop stop-color="#3C5DC7"></stop>
      <stop offset="0.12" stop-color="#5B21FF"></stop>
      <stop offset="0.289" stop-color="#AA3FFF"></stop>
      <stop offset="0.531" stop-color="#E54190"></stop>
      <stop offset="0.64" stop-color="#F8522E"></stop>
      <stop offset="0.921" stop-color="#0D0E12"></stop>
    </linearGradient>
    <linearGradient
      id="product-lines-bg_svg__d"
      x1="9.5"
      y1="225.5"
      x2="518"
      y2="362.5"
      gradientUnits="userSpaceOnUse"
    >
      <stop stop-color="#0742FE"></stop>
      <stop offset="0.12" stop-color="#5B21FF"></stop>
      <stop offset="0.289" stop-color="#AA3FFF"></stop>
      <stop offset="0.453" stop-color="#E54190"></stop>
      <stop offset="0.64" stop-color="#F8522E"></stop>
      <stop offset="0.827" stop-color="#0D0E12"></stop>
    </linearGradient>
    <clipPath id="product-lines-bg_svg__a">
      <path fill="#fff" d="M0 0h1440v671H0z"></path>
    </clipPath>
    <clipPath id="product-lines-bg_svg__b">
      <path
        fill="#fff"
        transform="matrix(-1 0 0 1 1440 0)"
        d="M0 0h562v671H0z"
      ></path>
    </clipPath>
  </defs>
</svg>